<?xml version="1.0" encoding="UTF-8"?>
<svg id="Calque_2" data-name="Calque 2" xmlns="http://www.w3.org/2000/svg" viewBox="0 0 192.19 165.18">
  <defs>
    <style>
      .cls-1 {
        fill: #3baa35;
      }

      .cls-1, .cls-2 {
        stroke-width: 0px;
      }

      .cls-2 {
        fill: #c6c6c6;
      }
    </style>
  </defs>
  <g id="Calque_1-2" data-name="Calque 1">
    <g>
      <path class="cls-2" d="m116.01.49c-25.64-3.48-29.33,12.55-29.33,12.55l-.64,42.27c-13.47-20.69-37.09-16.75-37.09-16.75C20.37,43.33,3.88,61.98.57,90.91c-2.91,25.45,5.12,54.89,29.5,67.26,21.08,10.7,39.07,5.98,39.07,5.98,49.97-16.8,46.72-62.1,46.72-62.1l.15-101.55Zm-58,138.98c-15.64,0-28.33-16.79-28.33-37.5s12.68-37.5,28.33-37.5,28.33,16.79,28.33,37.5-12.68,37.5-28.33,37.5Z"/>
      <path class="cls-1" d="m120.54,73.72c-.16-5-.22-10.01-.17-15.02.04-4.05-.76-8.05,2.24-11.1,9.86-10.02,26.09-11.51,39.35-6.87,8.45,2.96,16.21,8.21,21.43,15.49,11.01,15.35,8.56,35.15,8.56,52.95v45.05c0,.42-.06,7.98,0,7.99-6.45-.3-14.66.69-20.46-2.53-3.38-1.88-5.8-5.22-7.1-8.86-2.75-7.67-1.59-17.22-1.77-25.25-.21-9.2-.41-18.39-.62-27.59-.16-6.97.11-14.41-2.43-21.03s-11.12-13.4-18.5-13.55c-3.06-.06-6.03,1.02-8.79,2.35-4.28,2.06-8.25,4.76-11.74,7.97Z"/>
    </g>
  </g>
</svg>